<?xml version="1.0" standalone="no"?>
<!DOCTYPE svg PUBLIC "-//W3C//DTD SVG 20010904//EN"
 "http://www.w3.org/TR/2001/REC-SVG-20010904/DTD/svg10.dtd">
<svg version="1.0" xmlns="http://www.w3.org/2000/svg"
 width="196.000000pt" height="81.000000pt" viewBox="0 0 196.000000 81.000000"
 preserveAspectRatio="xMidYMid meet">

<g transform="translate(0.000000,81.000000) scale(0.100000,-0.100000)"
fill="#000000" stroke="none">
<path d="M1135 800 c-4 -6 22 -61 56 -123 110 -195 119 -215 119 -274 0 -66
-10 -89 -105 -257 -41 -72 -75 -135 -75 -139 0 -4 10 -7 22 -7 29 0 799 370
805 388 3 7 -3 22 -13 32 -10 10 -190 100 -399 200 -449 215 -401 194 -410
180z"/>
<path d="M70 522 c0 -5 -11 -69 -25 -143 -14 -74 -25 -135 -25 -136 0 -2 14
-3 30 -3 20 0 30 5 30 15 0 7 5 37 11 65 l11 50 49 0 c42 0 49 3 49 20 0 17
-7 20 -45 20 -39 0 -45 3 -45 21 0 46 17 59 80 59 53 0 60 2 60 20 0 19 -7 20
-90 20 -50 0 -90 -4 -90 -8z"/>
<path d="M693 483 c-13 -2 -23 -10 -23 -17 0 -7 -9 -23 -20 -36 -14 -17 -17
-26 -9 -31 9 -5 9 -23 0 -70 -12 -72 -5 -89 40 -89 35 0 44 14 23 34 -23 23
-10 116 17 123 22 6 25 28 5 36 -9 3 -12 15 -9 31 3 14 4 25 2 25 -2 -1 -14
-4 -26 -6z"/>
<path d="M279 425 c-27 -15 -59 -78 -59 -118 0 -52 45 -81 91 -57 13 7 19 7
19 0 0 -5 11 -10 24 -10 19 0 26 7 30 28 20 102 28 153 25 156 -15 13 -107 13
-130 1z m69 -55 c3 -30 -32 -90 -53 -90 -21 0 -20 68 1 98 20 29 48 25 52 -8z"/>
<path d="M493 430 c-27 -11 -46 -45 -38 -70 3 -10 22 -28 42 -40 27 -16 33
-24 24 -33 -8 -8 -19 -8 -40 0 -25 9 -31 8 -36 -5 -9 -23 22 -42 66 -42 45 0
69 21 69 61 0 23 -8 34 -35 50 -19 12 -35 25 -35 29 0 16 18 20 43 11 20 -8
27 -6 31 6 4 9 3 20 -1 24 -14 14 -66 19 -90 9z"/>
<path d="M824 430 c-59 -24 -88 -135 -46 -173 33 -30 132 -17 132 17 0 10 -13
14 -47 13 -38 -2 -48 2 -51 16 -3 13 3 17 28 17 17 0 41 5 53 11 82 44 18 134
-69 99z m56 -44 c0 -15 -16 -30 -42 -39 -24 -9 -30 6 -12 31 17 24 54 30 54 8z"/>
<path d="M1080 432 c-8 -3 -20 -12 -27 -21 -11 -14 -12 -14 -13 2 0 11 -8 17
-24 17 -21 0 -24 -6 -35 -72 -7 -40 -14 -83 -18 -95 -4 -19 -1 -23 20 -23 26
0 30 5 42 67 4 20 20 44 42 62 35 29 45 74 13 63z"/>
</g>
</svg>
